<svg viewBox="0 0 227 240" xmlns="http://www.w3.org/2000/svg" role="img" aria-label="StudyLoop mark">
  <path d="M89 85 L88 86 L87 86 L85 89 L85 166 L87 169 L88 169 L89 170 L93 170 L94 169 L95 169 L97 167 L100 166 L102 164 L107 162 L109 160 L110 160 L111 159 L112 159 L114 157 L117 156 L119 154 L124 152 L126 150 L127 150 L128 149 L129 149 L131 147 L134 146 L136 144 L141 142 L143 140 L146 139 L148 137 L151 136 L153 134 L156 133 L158 131 L158 130 L159 129 L159 126 L158 125 L158 124 L153 120 L152 120 L151 119 L148 118 L146 116 L141 114 L139 112 L136 111 L134 109 L131 108 L129 106 L124 104 L122 102 L119 101 L117 99 L112 97 L110 95 L107 94 L105 92 L102 91 L100 89 L95 87 L93 85 Z M156 14 L154 14 L153 15 L153 16 L152 17 L152 19 L151 20 L151 22 L150 23 L150 25 L149 26 L149 28 L147 31 L143 31 L142 30 L139 30 L138 29 L135 29 L134 28 L129 28 L128 27 L119 27 L118 26 L110 26 L109 27 L99 27 L98 28 L93 28 L92 29 L89 29 L88 30 L86 30 L85 31 L83 31 L82 32 L80 32 L79 33 L77 33 L74 35 L72 35 L71 36 L70 36 L69 37 L64 39 L62 41 L59 42 L57 44 L56 44 L53 47 L52 47 L47 52 L46 52 L39 59 L39 60 L34 65 L34 66 L32 68 L32 69 L28 74 L28 75 L27 76 L27 77 L25 79 L25 80 L23 83 L23 85 L20 90 L20 92 L19 93 L19 95 L18 96 L18 98 L17 99 L17 102 L16 103 L16 106 L15 107 L15 112 L14 113 L14 140 L15 141 L15 146 L16 147 L16 150 L17 151 L17 154 L18 155 L18 157 L19 158 L19 160 L20 161 L20 163 L21 164 L21 165 L22 166 L22 167 L23 168 L23 169 L24 170 L24 171 L25 172 L25 173 L26 174 L28 179 L30 181 L30 182 L32 184 L32 185 L35 188 L35 189 L41 195 L41 196 L47 202 L48 202 L57 210 L58 210 L59 211 L60 211 L62 213 L67 215 L69 217 L70 217 L73 219 L75 219 L78 221 L80 221 L81 222 L83 222 L84 223 L86 223 L87 224 L90 224 L91 225 L94 225 L95 226 L101 226 L102 227 L126 227 L127 226 L132 226 L133 225 L137 225 L138 224 L141 224 L142 223 L144 223 L145 222 L147 222 L148 221 L150 221 L151 220 L152 220 L153 219 L154 219 L155 218 L156 218 L157 217 L158 217 L159 216 L160 216 L161 215 L166 213 L168 211 L169 211 L171 209 L172 209 L180 202 L181 202 L190 193 L190 192 L195 187 L195 186 L199 181 L200 178 L202 176 L202 175 L203 174 L203 173 L207 166 L207 164 L209 161 L209 159 L210 158 L210 156 L211 155 L211 152 L212 151 L212 148 L213 147 L213 143 L214 142 L214 133 L215 132 L215 121 L214 120 L214 112 L213 111 L213 106 L212 105 L212 102 L211 101 L211 98 L210 97 L210 95 L209 94 L209 92 L208 91 L208 89 L207 88 L207 87 L206 86 L206 85 L205 84 L205 83 L204 82 L204 81 L203 80 L203 79 L202 78 L200 73 L198 71 L194 71 L189 75 L188 75 L187 76 L186 76 L184 78 L183 78 L183 79 L182 80 L182 83 L183 84 L185 89 L187 91 L187 93 L189 96 L189 98 L190 99 L190 101 L191 102 L191 104 L192 105 L192 107 L193 108 L193 112 L194 113 L194 120 L195 121 L195 132 L194 133 L194 140 L193 141 L193 145 L192 146 L192 148 L191 149 L191 151 L190 152 L190 154 L189 155 L189 157 L188 158 L188 159 L187 160 L187 161 L186 162 L184 167 L182 169 L182 170 L180 172 L180 173 L177 176 L177 177 L166 188 L165 188 L161 192 L160 192 L158 194 L155 195 L153 197 L152 197 L147 200 L145 200 L142 202 L140 202 L139 203 L137 203 L136 204 L133 204 L132 205 L127 205 L126 206 L118 206 L117 207 L110 207 L109 206 L101 206 L100 205 L96 205 L95 204 L92 204 L91 203 L89 203 L88 202 L86 202 L85 201 L83 201 L82 200 L81 200 L80 199 L75 197 L73 195 L70 194 L67 191 L66 191 L63 188 L62 188 L52 178 L52 177 L49 174 L49 173 L45 168 L44 165 L42 163 L42 162 L40 159 L40 157 L38 154 L38 152 L37 151 L37 149 L36 148 L36 145 L35 144 L35 140 L34 139 L34 129 L33 128 L33 124 L34 123 L34 114 L35 113 L35 109 L36 108 L36 105 L37 104 L37 102 L38 101 L38 99 L40 96 L40 94 L41 93 L42 90 L44 88 L45 85 L49 80 L49 79 L65 63 L66 63 L71 59 L76 57 L78 55 L79 55 L80 54 L82 54 L85 52 L87 52 L88 51 L90 51 L91 50 L93 50 L94 49 L97 49 L98 48 L104 48 L105 47 L123 47 L124 48 L128 48 L129 49 L133 49 L134 50 L137 50 L140 52 L140 54 L139 55 L139 57 L138 58 L138 60 L137 61 L137 63 L136 64 L136 66 L134 69 L134 71 L136 73 L138 73 L139 72 L140 72 L141 71 L143 71 L146 69 L148 69 L149 68 L151 68 L154 66 L156 66 L157 65 L159 65 L160 64 L162 64 L165 62 L167 62 L170 60 L172 60 L173 59 L175 59 L176 58 L177 58 L179 56 L179 52 L177 50 L175 45 L173 43 L172 40 L170 38 L169 35 L167 33 L166 30 L164 28 L163 25 L161 23 L160 20 L158 18 L158 17 L156 15 Z" fill="currentColor" fill-rule="evenodd"/>
</svg>
